<?xml version="1.0" encoding="UTF-8" standalone="no"?>
<svg width="1024px" height="1024px" viewBox="0 0 1024 1024" version="1.1" xmlns="http://www.w3.org/2000/svg" xmlns:xlink="http://www.w3.org/1999/xlink" xmlns:sketch="http://www.bohemiancoding.com/sketch/ns">
    <!-- Generator: Sketch 3.2 (9961) - http://www.bohemiancoding.com/sketch -->
    <title>Metaexchange-logo-icon 2</title>
    <desc>Created with Sketch.</desc>
    <defs>
        <filter x="-50%" y="-50%" width="200%" height="200%" filterUnits="objectBoundingBox" id="filter-1">
            <feOffset dx="10" dy="10" in="SourceAlpha" result="shadowOffsetOuter1"></feOffset>
            <feGaussianBlur stdDeviation="10" in="shadowOffsetOuter1" result="shadowBlurOuter1"></feGaussianBlur>
            <feColorMatrix values="0 0 0 0 0.290221632   0 0 0 0 0.290175289   0 0 0 0 0.290237457  0 0 0 0.157226562 0" in="shadowBlurOuter1" type="matrix" result="shadowMatrixOuter1"></feColorMatrix>
            <feMerge>
                <feMergeNode in="shadowMatrixOuter1"></feMergeNode>
                <feMergeNode in="SourceGraphic"></feMergeNode>
            </feMerge>
        </filter>
        <filter x="-50%" y="-50%" width="200%" height="200%" filterUnits="objectBoundingBox" id="filter-2">
            <feOffset dx="0" dy="5" in="SourceAlpha" result="shadowOffsetInner1"></feOffset>
            <feGaussianBlur stdDeviation="5" in="shadowOffsetInner1" result="shadowBlurInner1"></feGaussianBlur>
            <feComposite in="shadowBlurInner1" in2="SourceAlpha" operator="arithmetic" k2="-1" k3="1" result="shadowInnerInner1"></feComposite>
            <feColorMatrix values="0 0 0 0 0   0 0 0 0 0   0 0 0 0 0  0 0 0 0.35 0" in="shadowInnerInner1" type="matrix" result="shadowMatrixInner1"></feColorMatrix>
            <feMerge>
                <feMergeNode in="SourceGraphic"></feMergeNode>
                <feMergeNode in="shadowMatrixInner1"></feMergeNode>
            </feMerge>
        </filter>
        <filter x="-50%" y="-50%" width="200%" height="200%" filterUnits="objectBoundingBox" id="filter-3">
            <feOffset dx="0" dy="5" in="SourceAlpha" result="shadowOffsetInner1"></feOffset>
            <feGaussianBlur stdDeviation="5" in="shadowOffsetInner1" result="shadowBlurInner1"></feGaussianBlur>
            <feComposite in="shadowBlurInner1" in2="SourceAlpha" operator="arithmetic" k2="-1" k3="1" result="shadowInnerInner1"></feComposite>
            <feColorMatrix values="0 0 0 0 0   0 0 0 0 0   0 0 0 0 0  0 0 0 0.35 0" in="shadowInnerInner1" type="matrix" result="shadowMatrixInner1"></feColorMatrix>
            <feMerge>
                <feMergeNode in="SourceGraphic"></feMergeNode>
                <feMergeNode in="shadowMatrixInner1"></feMergeNode>
            </feMerge>
        </filter>
        <filter x="-50%" y="-50%" width="200%" height="200%" filterUnits="objectBoundingBox" id="filter-4">
            <feOffset dx="0" dy="1" in="SourceAlpha" result="shadowOffsetInner1"></feOffset>
            <feGaussianBlur stdDeviation="1.5" in="shadowOffsetInner1" result="shadowBlurInner1"></feGaussianBlur>
            <feComposite in="shadowBlurInner1" in2="SourceAlpha" operator="arithmetic" k2="-1" k3="1" result="shadowInnerInner1"></feComposite>
            <feColorMatrix values="0 0 0 0 0   0 0 0 0 0   0 0 0 0 0  0 0 0 0.171373981 0" in="shadowInnerInner1" type="matrix" result="shadowMatrixInner1"></feColorMatrix>
            <feMerge>
                <feMergeNode in="SourceGraphic"></feMergeNode>
                <feMergeNode in="shadowMatrixInner1"></feMergeNode>
            </feMerge>
        </filter>
    </defs>
    <g id="Page-1" stroke="none" stroke-width="1" fill="none" fill-rule="evenodd" sketch:type="MSPage">
        <g id="Metaexchange-logo-icon-2" sketch:type="MSArtboardGroup">
            <rect id="Rectangle-1" fill="#D8D8D8" sketch:type="MSShapeGroup" x="0" y="0" width="1024" height="1024"></rect>
            <path d="M495.24707,281.366136 L365.75293,356.321494 C355.695582,362.143009 349.5,372.901612 349.5,384.544643 L349.5,534.455357 C349.5,546.098388 355.695582,556.856991 365.75293,562.678506 L495.24707,637.633864 C505.304418,643.455379 517.695582,643.455379 527.75293,637.633864 L657.24707,562.678506 C667.304418,556.856991 673.5,546.098388 673.5,534.455357 L673.5,384.544643 C673.5,372.901612 667.304418,362.143009 657.24707,356.321494 L527.75293,281.366136 C517.695582,275.544621 505.304418,275.544621 495.24707,281.366136 L495.24707,281.366136 L495.24707,281.366136 Z" id="Polygon-3" fill="#18BC9C" filter="url(#filter-1)" sketch:type="MSShapeGroup"></path>
            <g id="Polygon-2-+->&lt;-+->&lt;-2" sketch:type="MSLayerGroup" transform="translate(420.000000, 381.000000)" opacity="0.800139925">
                <path d="M149.912946,8.58862144 L91.9084821,123.676149 L33.4955357,8.58862144 C30.6361607,3.09190372 24.1004464,0 17.5647321,0 C6.94419643,0 0,7.21444201 0,14.428884 C0,16.4901532 0.408482143,18.2078775 1.22544643,19.9256018 L67.3995536,143.945295 C71.484375,151.846827 81.2879464,157 91.0915179,157 C102.120536,157 111.924107,151.846827 116.008929,143.945295 L181.774554,19.9256018 C182.591518,18.2078775 183,16.4901532 183,14.428884 C183,7.55798687 176.464286,0 165.84375,0 C158.899554,0 152.772321,3.09190372 149.912946,8.58862144 L149.912946,8.58862144 Z" id=">&lt;" fill="#18BC9C" filter="url(#filter-2)" sketch:type="MSShapeGroup"></path>
                <path d="M149.912946,148.411379 L91.9084821,33.3238512 L33.4955357,148.411379 C30.6361607,153.908096 24.1004464,157 17.5647321,157 C6.94419643,157 0,149.785558 0,142.571116 C0,140.509847 0.408482143,138.792123 1.22544643,137.074398 L67.3995536,13.0547046 C71.484375,5.15317287 81.2879464,0 91.0915179,0 C102.120536,0 111.924107,5.15317287 116.008929,13.0547046 L181.774554,137.074398 C182.591518,138.792123 183,140.509847 183,142.571116 C183,149.442013 176.464286,157 165.84375,157 C158.899554,157 152.772321,153.908096 149.912946,148.411379 L149.912946,148.411379 Z" id=">&lt;-2" fill="#ECF0F1" filter="url(#filter-3)" sketch:type="MSShapeGroup"></path>
            </g>
            <text id="metaexchange" fill="white" filter="url(#filter-4)" sketch:type="MSTextLayer" font-family="Proxima Nova Soft" font-size="78" font-weight="bold">
                <tspan x="252" y="827" fill="#18BC9C">metaexchange</tspan>
            </text>
        </g>
    </g>
</svg>